<svg width="23" height="20" viewBox="0 0 23 20" fill="none" xmlns="http://www.w3.org/2000/svg">
<path d="M10.1434 19.4557L10.0311 19.3505L2.16074 11.909C0.781641 10.6055 0 8.77603 0 6.85963V6.70869C0 3.48878 2.24609 0.726235 5.35469 0.1225C7.12461 -0.225104 8.93496 0.191106 10.377 1.22477C10.7812 1.51749 11.1586 1.85595 11.5 2.24472C11.6887 2.02518 11.8908 1.82393 12.1064 1.63641C12.2727 1.49005 12.4434 1.35284 12.623 1.22477C14.065 0.191106 15.8754 -0.225104 17.6453 0.117926C20.7539 0.721661 23 3.48878 23 6.70869V6.85963C23 8.77603 22.2184 10.6055 20.8393 11.909L12.9689 19.3505L12.8566 19.4557C12.4883 19.8033 12.0031 20 11.5 20C10.9969 20 10.5117 19.8079 10.1434 19.4557ZM10.7408 4.67338C10.7229 4.65966 10.7094 4.64136 10.6959 4.62307L9.89629 3.70832L9.8918 3.70374C8.8541 2.51914 7.28633 1.97944 5.75898 2.27673C3.66562 2.6838 2.15625 4.54074 2.15625 6.70869V6.85963C2.15625 8.16315 2.69082 9.41178 3.62969 10.2991L11.5 17.7406L19.3703 10.2991C20.3092 9.41178 20.8438 8.16315 20.8438 6.85963V6.70869C20.8438 4.54531 19.3344 2.6838 17.2455 2.27673C15.7182 1.97944 14.1459 2.52372 13.1127 3.70374C13.1127 3.70374 13.1127 3.70374 13.1082 3.70832C13.1037 3.71289 13.1082 3.70832 13.1037 3.71289L12.3041 4.62764C12.2906 4.64593 12.2727 4.65966 12.2592 4.67795C12.057 4.88377 11.783 4.99811 11.5 4.99811C11.217 4.99811 10.943 4.88377 10.7408 4.67795V4.67338Z" fill="black"/>
</svg>
