<svg width="181" height="176" viewBox="0 0 181 176" fill="none" xmlns="http://www.w3.org/2000/svg">
<path d="M0 25.1429C0 11.275 10.1459 0 22.625 0H158.375C170.854 0 181 11.275 181 25.1429V150.857C181 164.725 170.854 176 158.375 176H22.625C10.1459 176 0 164.725 0 150.857V25.1429ZM114.468 66.9821C112.878 64.3893 110.262 62.8571 107.469 62.8571C104.676 62.8571 102.025 64.3893 100.469 66.9821L69.7133 117.111L60.3451 104.107C58.7189 101.868 56.2797 100.571 53.7344 100.571C51.1891 100.571 48.7145 101.868 47.1236 104.107L24.4986 135.536C22.4482 138.364 22.0594 142.254 23.4734 145.514C24.8875 148.775 27.857 150.857 31.1094 150.857H65.0469H76.3594H149.891C153.037 150.857 155.936 148.932 157.385 145.829C158.835 142.725 158.658 138.993 156.89 136.125L114.468 66.9821ZM39.5938 62.8571C44.0941 62.8571 48.4102 60.8704 51.5925 57.334C54.7747 53.7976 56.5625 49.0012 56.5625 44C56.5625 38.9988 54.7747 34.2024 51.5925 30.666C48.4102 27.1296 44.0941 25.1429 39.5938 25.1429C35.0934 25.1429 30.7773 27.1296 27.595 30.666C24.4128 34.2024 22.625 38.9988 22.625 44C22.625 49.0012 24.4128 53.7976 27.595 57.334C30.7773 60.8704 35.0934 62.8571 39.5938 62.8571Z" fill="#808080"/>
</svg>
